<?xml version="1.0" standalone="no"?><!DOCTYPE svg PUBLIC "-//W3C//DTD SVG 1.1//EN" "http://www.w3.org/Graphics/SVG/1.1/DTD/svg11.dtd"><svg t="1645355785502" class="icon" viewBox="0 0 1024 1024" version="1.1" xmlns="http://www.w3.org/2000/svg" p-id="2503" xmlns:xlink="http://www.w3.org/1999/xlink" width="200" height="200"><defs><style type="text/css"></style></defs><path d="M849.408 6.656L411.648 140.8c-53.248 15.36-95.744 70.656-95.744 123.392v461.312S284.16 704 213.504 714.24C109.568 729.088 25.6 808.448 25.6 891.904s83.968 134.656 187.904 119.808c103.936-14.848 179.712-91.648 179.712-175.104v-445.44c0-36.864 44.544-52.736 44.544-52.736l387.072-121.344s43.008-14.336 43.008 25.088v367.616s-39.424-22.528-110.08-14.336c-103.936 12.8-187.904 90.624-187.904 174.08S653.824 905.728 757.76 893.44c103.936-12.8 187.904-90.624 187.904-174.08V74.752c-0.512-52.224-43.52-82.944-96.256-68.096z" p-id="2504"></path></svg>