<?xml version="1.0" standalone="no"?><!DOCTYPE svg PUBLIC "-//W3C//DTD SVG 1.1//EN" "http://www.w3.org/Graphics/SVG/1.1/DTD/svg11.dtd"><svg t="1643361651917" class="icon" viewBox="0 0 1024 1024" version="1.1" xmlns="http://www.w3.org/2000/svg" p-id="20287" xmlns:xlink="http://www.w3.org/1999/xlink" width="200" height="200"><defs><style type="text/css"></style></defs><path d="M978.488889 119.466667H45.511111c-22.755556 5.688889-45.511111-17.066667-45.511111-39.822223S17.066667 34.133333 45.511111 34.133333h932.977778c22.755556 0 45.511111 22.755556 45.511111 45.511111s-22.755556 39.822222-45.511111 39.822223zM978.488889 409.6H45.511111c-22.755556 0-45.511111-17.066667-45.511111-39.822222s17.066667-45.511111 45.511111-45.511111h932.977778c22.755556 0 45.511111 17.066667 45.511111 45.511111s-22.755556 39.822222-45.511111 39.822222zM978.488889 694.044444H45.511111c-22.755556 0-45.511111-17.066667-45.511111-45.511111s17.066667-45.511111 45.511111-45.511111h932.977778c22.755556 0 45.511111 17.066667 45.511111 45.511111s-22.755556 45.511111-45.511111 45.511111zM978.488889 984.177778H45.511111c-22.755556 0-45.511111-17.066667-45.511111-45.511111s17.066667-45.511111 45.511111-45.511111h932.977778c22.755556 0 45.511111 17.066667 45.511111 45.511111s-22.755556 45.511111-45.511111 45.511111z" p-id="20288"></path></svg>